<?xml version="1.0" encoding="UTF-8" standalone="no"?>
<svg
   version="1.0"
   width="700.000000pt"
   height="700.000000pt"
   viewBox="0 0 700.000000 700.000000"
   preserveAspectRatio="xMidYMid meet"
   id="svg24"
   sodipodi:docname="clip.svg"
   inkscape:version="1.2.2 (732a01da63, 2022-12-09)"
   xmlns:inkscape="http://www.inkscape.org/namespaces/inkscape"
   xmlns:sodipodi="http://sodipodi.sourceforge.net/DTD/sodipodi-0.dtd"
   xmlns="http://www.w3.org/2000/svg"
   xmlns:svg="http://www.w3.org/2000/svg">
  <defs
     id="defs28" />
  <sodipodi:namedview
     id="namedview26"
     pagecolor="#ffffff"
     bordercolor="#000000"
     borderopacity="0.25"
     inkscape:showpageshadow="2"
     inkscape:pageopacity="0.0"
     inkscape:pagecheckerboard="0"
     inkscape:deskcolor="#d1d1d1"
     inkscape:document-units="pt"
     showgrid="false"
     inkscape:zoom="0.70710678"
     inkscape:cx="428.50671"
     inkscape:cy="516.18795"
     inkscape:window-width="1920"
     inkscape:window-height="1017"
     inkscape:window-x="-8"
     inkscape:window-y="-8"
     inkscape:window-maximized="1"
     inkscape:current-layer="g22" />
  <metadata
     id="metadata2">
Created by potrace 1.14, written by Peter Selinger 2001-2017
</metadata>
  <g
     transform="matrix(0.1,0,0,-0.1,0,700)"
     fill="#000000"
     stroke="none"
     id="g22"
     inkscape:groupmode="layer"
     style="fill:#ffffff">
    <path
       id="path4"
       style="fill:#ffffff"
       d="M -212.13867 7159.0967 L -212.13867 -117.03125 L 7180.6641 -117.03125 L 7180.6641 7159.0967 L -212.13867 7159.0967 z M 3516.8262 6882.1387 C 3520.0605 6882.1855 3522.5039 6881.5 3524.0039 6880 C 3531.0039 6873 3449.0048 6682.0017 3325.0049 6422.002 L 3303.999 6377.998 L 3210.9961 6519.0039 C 3158.9961 6597.0038 3118.9961 6661.9941 3120.9961 6663.9941 C 3126.9961 6667.9941 3326.9952 6783.9981 3379.9951 6812.998 C 3404.9951 6826.998 3444.9951 6850.0039 3469.9951 6864.0039 C 3490.2451 6875.2539 3507.1231 6881.998 3516.8262 6882.1387 z M 3772.002 6740.0049 L 3828.999 6707.998 C 3859.999 6689.9981 3981.9952 6620.0068 4099.9951 6552.0068 C 4217.995 6483.0069 4329.9932 6418.9941 4347.9932 6408.9941 C 4365.9931 6397.9942 4440.9932 6355.0029 4512.9932 6313.0029 C 4585.9931 6271.003 4661 6227.9971 4680 6216.9971 C 4814.9999 6140.9971 5040 6006.998 5040 6002.998 C 5040 5999.998 4972.0038 5881.996 4889.0039 5740.9961 C 4714.0041 5443.9964 4732.0039 5473.995 4679.0039 5384.9951 C 4656.0039 5346.9952 4629 5302.0049 4620 5285.0049 C 4611 5269.0049 4544.995 5157.0028 4474.9951 5038.0029 L 4346.9971 4821.001 L 4199.0039 5042.998 C 4117.004 5164.9979 4045.9951 5271.9951 4039.9951 5279.9951 C 3861.9953 5539.9949 3490.0049 6106 3490.0049 6115 C 3490.0049 6123 3512.9961 6177.0069 3540.9961 6237.0068 C 3568.9961 6296.0068 3600.9971 6364.9951 3611.9971 6389.9951 C 3622.9971 6414.9951 3654.0059 6481.003 3681.0059 6538.0029 C 3708.0058 6594.0029 3738.9961 6662.9951 3750.9961 6689.9951 L 3772.002 6740.0049 z M 2875.0049 6516.001 C 2883.0049 6514.001 3087.004 6216.996 3149.0039 6115.9961 L 3168.999 6084.0039 L 3108.999 5954.9951 C 3074.9991 5882.9952 3026.0039 5777.997 2999.0039 5721.9971 C 2972.0039 5664.9971 2950.0049 5617.0049 2950.0049 5615.0049 C 2950.0049 5613.0049 2926.999 5563.0029 2898.999 5503.0029 C 2844.9991 5388.003 2830.0048 5356.9949 2740.0049 5159.9951 C 2708.0049 5090.9952 2667.0019 5001 2647.002 4960 C 2628.002 4919 2582.0048 4819.995 2545.0049 4739.9951 C 2508.0049 4659.9952 2463 4564 2445 4525 C 2427 4487 2369.0019 4363.0048 2317.002 4250.0049 C 2265.002 4137.005 2201.9961 4001.0019 2175.9961 3947.002 C 2150.9961 3893.002 2130 3847.0049 2130 3845.0049 C 2130 3844.0049 2101.997 3781.9941 2066.9971 3708.9941 C 2031.9971 3634.9942 1980 3522.9931 1950 3457.9932 C 1921 3393.9932 1892.001 3344.0059 1886.001 3346.0059 C 1880.001 3348.0059 1870.0029 3357.9932 1863.0029 3367.9932 C 1857.0029 3377.9932 1575.0016 3743.9965 1237.002 4180.9961 C 899.00229 4618.9957 617.99316 4985.0059 612.99316 4996.0059 C 603.99317 5015.0058 601.00489 5204.9932 610.00488 5212.9932 C 615.00488 5216.9932 1022.005 5452.9981 1120.0049 5507.998 C 1145.0049 5521.998 1208.0001 5558.0039 1260 5589.0039 C 1311.9999 5619.0039 1364.9971 5647.999 1376.9971 5653.999 C 1389.9971 5659.999 1399.9951 5667.9981 1399.9951 5672.998 C 1399.9951 5676.998 1404 5680 1410 5680 C 1415 5680 1474.001 5712.001 1541.001 5751.001 C 1711.0008 5850.0009 2176.0049 6118.003 2230.0049 6148.0029 C 2255.0049 6162.0029 2306.9952 6192.0049 2344.9951 6215.0049 C 2383.9951 6238.0049 2422 6260.0039 2430 6264.0039 C 2438 6267.0039 2459 6278.9942 2475 6288.9941 C 2492 6299.9941 2525 6319.9981 2550 6332.998 C 2575 6346.998 2656.0001 6393.9981 2730 6437.998 C 2803.9999 6481.998 2869.0049 6517.001 2875.0049 6516.001 z M 5303.9941 5856.9971 C 5315.9941 5848.9971 5357.0049 5825.9951 5395.0049 5804.9951 C 5434.0048 5783.9951 5472.0059 5761.0039 5481.0059 5754.0039 C 5489.0059 5746.0039 5498.9971 5740 5501.9971 5740 C 5504.9971 5740 5573.9962 5700.999 5655.9961 5653.999 C 5737.996 5605.9991 5820.9951 5558.0029 5839.9951 5548.0029 C 5933.995 5494.003 6416.0039 5215.9932 6419.0039 5212.9932 C 6421.0039 5211.9932 6423.0029 4455.9991 6423.0029 3535 C 6423.0029 1731.0018 6427.0039 1841.9961 6374.0039 1825.9961 C 6356.0039 1820.9961 6338.9941 1842.007 6248.9941 1977.0068 C 6104.9943 2193.0066 4751.0067 4217.9992 4622.0068 4408.999 C 4536.0069 4537.9989 4519.9932 4567.0039 4527.9932 4584.0039 C 4532.9932 4596.0039 4645.9943 4788.9944 4778.9941 5013.9941 C 4910.994 5238.9939 5020.0049 5426.0059 5020.0049 5431.0059 C 5020.0049 5436.0059 5023.999 5440 5028.999 5440 C 5033.999 5440 5042.9941 5451.9932 5048.9941 5467.9932 C 5054.9941 5482.9931 5086.003 5538.0001 5118.0029 5590 C 5149.0029 5642.9999 5198.9942 5726.9981 5228.9941 5777.998 C 5280.9941 5864.998 5284.9942 5868.9971 5303.9941 5856.9971 z M 3349.9951 5810.0049 C 3353.9951 5810.0049 3543.9944 5528.0036 3773.9941 5184.0039 L 4191.0059 4558.999 L 4163.9941 4512.0068 C 4148.9942 4486.0069 4040.0018 4301.0047 3922.002 4100.0049 C 3803.0021 3899.0051 3700.9951 3726 3694.9951 3715 C 3683.9951 3695 3628.0039 3600.0068 3599.0039 3552.0068 C 3590.0039 3537.0069 3468.9999 3332.0046 3330 3095.0049 C 2812.0005 2215.0058 2787.9961 2176.0059 2775.9961 2191.0059 C 2759.9961 2213.0058 2256.998 2861.9951 2242.998 2879.9951 C 2236.9981 2887.9951 2198.0009 2938.001 2156.001 2991.001 L 2081.9971 3088.0029 L 2159.0039 3256.0059 C 2202.0039 3349.0058 2253.002 3459.0049 2272.002 3500.0049 C 2292.0019 3541.0048 2317.9951 3598 2329.9951 3625 C 2342.9951 3653 2377.0059 3726.004 2406.0059 3789.0039 C 2436.0058 3851.0038 2460 3904.001 2460 3906.001 C 2460 3908.001 2481.9991 3955.9971 2508.999 4011.9971 C 2535.999 4068.997 2611.9981 4232.0001 2677.998 4375 C 2743.998 4517.9999 2816.9951 4675.9952 2839.9951 4724.9951 C 2862.9951 4774.9951 2893.9971 4840 2906.9971 4870 C 2920.9971 4900 2954.001 4970.9981 2981.001 5027.998 C 3008.0009 5084.998 3030 5133.0049 3030 5135.0049 C 3030 5136.0049 3056.9961 5196.0059 3090.9961 5266.0059 C 3124.9961 5337.0058 3172.9951 5442.0001 3199.9951 5500 C 3225.9951 5557.9999 3269.0049 5650.9932 3295.0049 5707.9932 C 3322.0049 5763.9931 3345.9951 5810.0049 3349.9951 5810.0049 z M 610.00488 4540 C 613.00488 4540 647.00492 4497.9931 685.00488 4447.9932 C 724.00484 4396.9932 757.00098 4352.9951 761.00098 4349.9951 C 764.00097 4346.9951 856.00597 4228.0047 966.00586 4085.0049 C 1076.0057 3941.005 1189.9951 3793.0048 1219.9951 3755.0049 C 1326.995 3616.005 1374.9951 3554.998 1384.9951 3542.998 C 1403.9951 3519.9981 1415.9951 3504.9951 1444.9951 3464.9951 C 1461.9951 3442.9951 1528.9952 3355.995 1594.9951 3269.9951 C 1660.9951 3184.9952 1726.0039 3099.9971 1739.0039 3081.9971 L 1762.002 3050.0049 L 1716.0059 2953.999 C 1691.0059 2901.9991 1669.9951 2857.0049 1669.9951 2855.0049 C 1669.9951 2853.0049 1644.9941 2797.998 1613.9941 2732.998 C 1582.9942 2667.9981 1539 2571.9951 1515 2519.9951 C 1491 2467.9952 1452.0068 2382.0048 1427.0068 2330.0049 C 1403.0069 2278.0049 1344.0019 2151.9999 1297.002 2050 C 1250.002 1948.0001 1191.0049 1819.9999 1165.0049 1765 C 1139.0049 1710.0001 1108.999 1645.0019 1098.999 1622.002 L 1080 1577.998 L 1046.9971 1596.9971 C 1029.9971 1606.9971 922.99989 1669.004 810 1734.0039 L 604.99512 1851.9971 L 604.99512 3196.0059 C 604.99512 3935.0051 607.00489 4540 610.00488 4540 z M 4369.9951 4292.998 C 4376.9951 4285.9981 5817.9973 2130.9948 6026.9971 1814.9951 C 6108.997 1691.9952 6117.9971 1674.0059 6101.9971 1666.0059 C 6092.9971 1661.0059 5897.9998 1548.9969 5670 1416.9971 C 5442.0002 1284.9972 5241.9951 1170.001 5224.9951 1161.001 C 5208.9951 1152.001 5184.0049 1136.9941 5170.0049 1128.9941 C 5150.0049 1115.9942 4963.0046 1007.9959 4690.0049 850.99609 C 4504.0051 743.9962 4423 696.99902 4410 688.99902 C 4402 683.99903 4325.0048 640.00093 4240.0049 591.00098 C 4096.005 507.00106 4083.9951 501.99318 4069.9951 517.99316 C 4054.9951 535.99315 4041.0038 553.00501 3944.0039 680.00488 C 3723.0041 967.0046 3367.001 1427.9951 3356.001 1439.9951 C 3350.001 1448.9951 3296.9999 1515.9952 3240 1589.9951 C 3183.0001 1663.995 3115.9961 1751.003 3090.9961 1783.0029 C 3065.9961 1816.0029 3038 1851.9981 3030 1862.998 C 3022 1874.998 3005.0019 1896.0049 2992.002 1910.0049 C 2980.002 1924.0049 2971.9951 1941.9951 2974.9951 1949.9951 C 2978.9951 1957.9951 3048.005 2078.007 3130.0049 2217.0068 C 3213.0048 2356.0067 3288.0039 2484.0069 3299.0039 2502.0068 C 3309.0039 2520.0068 3384.0001 2648.0001 3465 2785 C 3546.9999 2922.9999 3636.003 3072.9952 3663.0029 3119.9951 C 3758.0028 3280.995 3823.0052 3392.9956 4105.0049 3869.9951 C 4139.0048 3927.9951 4207.0049 4042.9952 4255.0049 4124.9951 C 4303.0048 4207.995 4347.0029 4281.0029 4353.0029 4288.0029 C 4359.0029 4295.0029 4365.9951 4296.998 4369.9951 4292.998 z M 1956.0059 2800 C 1957.0059 2800 2095.001 2625.0038 2156.001 2544.0039 C 2264.0009 2403.004 2495.0049 2103.9951 2500.0049 2099.9951 C 2503.0049 2096.9951 2525 2068 2550 2035 C 2575 2002 2605.002 1963.9951 2617.002 1949.9951 L 2639.0039 1926.001 L 2617.998 1889.9951 C 2606.9981 1870.9951 2587.0049 1836.9951 2575.0049 1814.9951 C 2562.0049 1792.9951 2488.0048 1667.0048 2410.0049 1535.0049 C 2332.005 1403.005 2230.0019 1228.9931 2182.002 1147.9932 C 2135.002 1065.9932 2092.999 1000 2088.999 1000 C 2084.999 1000 1999.0048 1047.0001 1900.0049 1105 C 1800.005 1162.9999 1714.0039 1210 1709.0039 1210 C 1704.0039 1210 1699.9951 1215.0049 1699.9951 1220.0049 C 1699.9951 1226.0049 1696.001 1229.9951 1691.001 1229.9951 C 1685.001 1229.9951 1615.0028 1268.9961 1533.0029 1315.9961 C 1452.003 1363.996 1371.9951 1410.0039 1354.9951 1419.0039 C 1338.9951 1428.0039 1322.9961 1436.0068 1320.9961 1437.0068 C 1316.9961 1440.0068 1345.005 1504.9992 1420.0049 1663.999 C 1446.0049 1719.999 1480.9932 1793.9952 1497.9932 1829.9951 C 1513.9931 1865.9951 1550.9991 1943.9932 1578.999 2002.9932 C 1606.999 2061.9931 1630.0049 2112.999 1630.0049 2113.999 C 1630.0049 2116.999 1663.9972 2191.0002 1751.9971 2380 C 1768.9971 2416 1795.9932 2474.0049 1812.9932 2510.0049 C 1828.9931 2546.0048 1862.001 2617.003 1886.001 2668.0029 C 1910.001 2719.0029 1930.0049 2763.9932 1930.0049 2767.9932 C 1930.0049 2772.9932 1935.002 2781.0029 1942.002 2788.0029 C 1949.0019 2795.0029 1955.0059 2800 1956.0059 2800 z M 2817.9932 1679.9951 C 2823.9932 1679.9951 2804.0025 1706.0003 3352.002 996.00098 C 3620.0017 649.00132 3836.0019 362.99902 3832.002 358.99902 C 3818.002 344.99904 3524.9951 177.00684 3514.9951 177.00684 C 3505.9951 177.00684 3222.0046 338.9953 2905.0049 524.99512 C 2856.0049 553.99509 2795.0049 589.00197 2770.0049 602.00195 C 2728.0049 626.00193 2583 710.00002 2550 730 C 2542 735 2489.0029 764.99808 2433.0029 797.99805 L 2331.0059 856.00586 L 2382.9932 947.00195 C 2411.9931 997.0019 2520.004 1183.0041 2624.0039 1359.0039 C 2728.0038 1536.0037 2814.9932 1679.9951 2817.9932 1679.9951 z " />
  </g>
</svg>
