<svg version="1.0" xmlns="http://www.w3.org/2000/svg"
 width="700.000000pt" height="700.000000pt" viewBox="0 0 700.000000 700.000000"
 preserveAspectRatio="xMidYMid meet">
<metadata>
Created by potrace 1.14, written by Peter Selinger 2001-2017
</metadata>
<g transform="translate(0.000000,700.000000) scale(0.100000,-0.100000)"
fill="#ffffff" stroke="none">
<path d="M3470 6864 c-25 -14 -65 -37 -90 -51 -53 -29 -253 -145 -259 -149 -2
-2 38 -67 90 -145 l93 -141 21 44 c124 260 206 451 199 458 -6 6 -27 -1 -54
-16z"/>
<path d="M3751 6690 c-12 -27 -43 -96 -70 -152 -27 -57 -58 -123 -69 -148 -11
-25 -43 -94 -71 -153 -28 -60 -51 -114 -51 -122 0 -9 372 -575 550 -835 6 -8
77 -115 159 -237 l148 -222 128 217 c70 119 136 231 145 247 9 17 36 62 59
100 53 89 35 59 210 356 83 141 151 259 151 262 0 4 -225 138 -360 214 -19 11
-94 54 -167 96 -72 42 -147 85 -165 96 -18 10 -130 74 -248 143 -118 68 -240
138 -271 156 l-57 32 -21 -50z"/>
<path d="M2730 6438 c-74 -44 -155 -91 -180 -105 -25 -13 -58 -33 -75 -44 -16
-10 -37 -22 -45 -25 -8 -4 -46 -26 -85 -49 -38 -23 -90 -53 -115 -67 -54 -30
-519 -298 -689 -397 -67 -39 -126 -71 -131 -71 -6 0 -10 -3 -10 -7 0 -5 -10
-13 -23 -19 -12 -6 -65 -35 -117 -65 -52 -31 -115 -67 -140 -81 -98 -55 -505
-291 -510 -295 -9 -8 -6 -198 3 -217 5 -11 286 -377 624 -815 338 -437 620
-803 626 -813 7 -10 17 -20 23 -22 6 -2 35 48 64 112 30 65 82 177 117 251 35
73 63 135 63 136 0 2 21 48 46 102 26 54 89 190 141 303 52 113 110 237 128
275 18 39 63 135 100 215 37 80 83 179 102 220 20 41 61 131 93 200 90 197
105 228 159 343 28 60 51 110 51 112 0 2 22 50 49 107 27 56 76 161 110 233
l60 129 -20 32 c-62 101 -266 398 -274 400 -6 1 -71 -34 -145 -78z"/>
<path d="M5229 5778 c-30 -51 -80 -135 -111 -188 -32 -52 -63 -107 -69 -122
-6 -16 -15 -28 -20 -28 -5 0 -9 -4 -9 -9 0 -5 -109 -192 -241 -417 -133 -225
-246 -418 -251 -430 -8 -17 8 -46 94 -175 129 -191 1483 -2216 1627 -2432 90
-135 107 -156 125 -151 53 16 49 -95 49 1709 0 921 -2 1677 -4 1678 -3 3 -485
281 -579 335 -19 10 -102 58 -184 106 -82 47 -151 86 -154 86 -3 0 -13 6 -21
14 -9 7 -47 30 -86 51 -38 21 -79 44 -91 52 -19 12 -23 8 -75 -79z"/>
<path d="M3295 5708 c-26 -57 -69 -150 -95 -208 -27 -58 -75 -163 -109 -234
-34 -70 -61 -130 -61 -131 0 -2 -22 -50 -49 -107 -27 -57 -60 -128 -74 -158
-13 -30 -44 -95 -67 -145 -23 -49 -96 -207 -162 -350 -66 -143 -142 -306 -169
-363 -27 -56 -49 -104 -49 -106 0 -2 -24 -55 -54 -117 -29 -63 -63 -136 -76
-164 -12 -27 -38 -84 -58 -125 -19 -41 -70 -151 -113 -244 l-77 -168 74 -97
c42 -53 81 -103 87 -111 14 -18 517 -667 533 -689 12 -15 36 24 554 904 139
237 260 442 269 457 29 48 85 143 96 163 6 11 108 184 227 385 118 201 227
386 242 412 l27 47 -417 625 c-230 344 -420 626 -424 626 -4 0 -28 -46 -55
-102z"/>
<path d="M605 3196 l0 -1344 205 -118 c113 -65 220 -127 237 -137 l33 -19 19
44 c10 23 40 88 66 143 26 55 85 183 132 285 47 102 106 228 130 280 25 52 64
138 88 190 24 52 68 148 99 213 31 65 56 120 56 122 0 2 21 47 46 99 l46 96
-23 32 c-13 18 -78 103 -144 188 -66 86 -133 173 -150 195 -29 40 -41 55 -60
78 -10 12 -58 73 -165 212 -30 38 -144 186 -254 330 -110 143 -202 262 -205
265 -4 3 -37 47 -76 98 -38 50 -72 92 -75 92 -3 0 -5 -605 -5 -1344z"/>
<path d="M4353 4288 c-6 -7 -50 -80 -98 -163 -48 -82 -116 -197 -150 -255
-282 -477 -347 -589 -442 -750 -27 -47 -116 -197 -198 -335 -81 -137 -156
-265 -166 -283 -11 -18 -86 -146 -169 -285 -82 -139 -151 -259 -155 -267 -3
-8 5 -26 17 -40 13 -14 30 -35 38 -47 8 -11 36 -47 61 -80 25 -32 92 -119 149
-193 57 -74 110 -141 116 -150 11 -12 367 -473 588 -760 97 -127 111 -144 126
-162 14 -16 26 -11 170 73 85 49 162 93 170 98 13 8 94 55 280 162 273 157
460 265 480 278 14 8 39 23 55 32 17 9 217 124 445 256 228 132 423 244 432
249 16 8 7 26 -75 149 -209 316 -1650 2471 -1657 2478 -4 4 -11 2 -17 -5z"/>
<path d="M1942 2788 c-7 -7 -12 -15 -12 -20 0 -4 -20 -49 -44 -100 -24 -51
-57 -122 -73 -158 -17 -36 -44 -94 -61 -130 -88 -189 -122 -263 -122 -266 0
-1 -23 -52 -51 -111 -28 -59 -65 -137 -81 -173 -17 -36 -52 -110 -78 -166 -75
-159 -103 -224 -99 -227 2 -1 18 -9 34 -18 17 -9 97 -55 178 -103 82 -47 152
-86 158 -86 5 0 9 -4 9 -10 0 -5 4 -10 9 -10 5 0 91 -47 191 -105 99 -58 185
-105 189 -105 4 0 46 66 93 148 48 81 150 255 228 387 78 132 152 258 165 280
12 22 32 56 43 75 l21 36 -22 24 c-12 14 -42 52 -67 85 -25 33 -47 62 -50 65
-5 4 -236 303 -344 444 -61 81 -199 256 -200 256 -1 0 -7 -5 -14 -12z"/>
<path d="M2624 1359 c-104 -176 -212 -362 -241 -412 l-52 -91 102 -58 c56 -33
109 -63 117 -68 33 -20 178 -104 220 -128 25 -13 86 -48 135 -77 317 -186 601
-348 610 -348 10 0 303 168 317 182 4 4 -212 290 -480 637 -548 710 -528 684
-534 684 -3 0 -90 -144 -194 -321z"/>
</g>
</svg>
